<svg xmlns="http://www.w3.org/2000/svg" viewBox="5 88 248 75">
  <path d="m244.1 121.2c-31.34 12.69-81.12 26.2-134.4 28.68-37.43 1.72-73.78 1.45-92.74-9.23-8.86-5.7-7.57-11.9-2.97-17.44-0.24 1.6-0.03 3.28 0.66 4.87 6.21 14.17 40.82 18.1 82.54 16.38 33.61-1.33 66.73-6.64 102-13.29 1.74-0.35 1.61 1.76 0.4 2.16-27.08 7.19-57.68 12.87-99.43 14.43-36.07 1.33-71.57-1.56-85.18-13.63-4.57-4.1-4.16-9.26-1.14-13.61-2.15 0.94-3.76 2.09-4.88 3.38-5.17 6.12-5.81 16.09 5.9 22.5 13.99 8.56 41.3 9.83 66 8.77 45.89-2.02 102-11.52 162.7-31.4 2.1-0.72 1.89-3.09 0.49-2.57z" fill="#23AE7D"/>
  <path d="m25.99 110.1c-6.21 2.76-10.25 6.41-11.28 10.09-1.44 5.42 2.28 9.13 8.67 12.12 16.44 7.97 47.86 8.67 76.41 7.42 18.92-0.82 38.13-2.42 63.5-5.87 2.18-0.38 1.1-2.93-0.61-2.52-17.89 3.49-34.69 5.1-62.5 5.42-29.11 0.35-52.72-2.15-66.87-7.35-9.4-3.55-12.67-6.42-10.5-11.47 0.97-1.82 3.3-3.56 4.25-4.98 0.9-1.37 0.23-3.47-1.07-2.86z" fill="#71DBB0"/>
</svg>
