<svg xmlns="http://www.w3.org/2000/svg" viewBox="10 90 235 65">
<!-- SVG created with Arrow, by QuiverAI (https://quiver.ai) -->
  <path d="m244.1 121.2c-31.34 12.69-81.12 26.2-134.4 28.68-37.43 1.72-73.78 1.45-92.74-9.23-8.86-5.7-7.57-11.9-2.97-17.44-0.24 1.6-0.03 3.28 0.66 4.87 6.21 14.17 40.82 18.1 82.54 16.38 33.61-1.33 66.73-6.64 102-13.29 1.74-0.35 1.61 1.76 0.4 2.16-27.08 7.19-57.68 12.87-99.43 14.43-36.07 1.33-71.57-1.56-85.18-13.63-4.57-4.1-4.16-9.26-1.14-13.61-2.15 0.94-3.76 2.09-4.88 3.38-5.17 6.12-5.81 16.09 5.9 22.5 13.99 8.56 41.3 9.83 66 8.77 45.89-2.02 102-11.52 162.7-31.4 2.1-0.72 1.89-3.09 0.49-2.57z" fill="#23AE7D"/>
  <path d="m25.99 110.1c-6.21 2.76-10.25 6.41-11.28 10.09-1.44 5.42 2.28 9.13 8.67 12.12 16.44 7.97 47.86 8.67 76.41 7.42 18.92-0.82 38.13-2.42 63.5-5.87 2.18-0.38 1.1-2.93-0.61-2.52-17.89 3.49-34.69 5.1-62.5 5.42-29.11 0.35-52.72-2.15-66.87-7.35-9.4-3.55-12.67-6.42-10.5-11.47 0.97-1.82 3.3-3.56 4.25-4.98 0.9-1.37 0.23-3.47-1.07-2.86z" fill="#71DBB0"/>
  <path d="m32.2 117.9 2.16-4.6c2.33 1.62 5.73 2.72 8.99 2.72 3.12 0 4.34-0.93 4.34-2.26 0-4.15-14.47-1.13-14.47-10.09 0-4.18 3.47-7.31 10.32-7.31 3.18 0 6.27 0.7 8.67 2.11l-1.99 4.63c-2.3-1.26-4.67-1.86-6.73-1.86-3.12 0-4.31 1.1-4.31 2.47 0 4.08 14.47 1.09 14.47 9.94 0 4.08-3.47 7.25-10.34 7.25-3.85 0-7.74-1.12-11.11-3z" fill="#ffffff"/>
  <path d="m83.24 102.5-6.33 17.42h-5.29l-3.96-10.55-4.12 10.55h-4.26l-6.3-17.42h5.26l4.15 11.77 4.34-11.77h4.08l4.22 11.77 4.3-11.77h3.91z" fill="#ffffff"/>
  <path d="m85.28 96.92c0-2.06 1.44-3.32 3.43-3.32s3.43 1.26 3.43 3.18c0 2.03-1.44 3.33-3.43 3.33s-3.43-1.3-3.43-3.19zm0.5 5.39h5.73v17.42h-5.73v-17.42z" fill="#ffffff"/>
  <path d="m102.1 102.2v0.55h4.44v4.01h-4.3v12.86h-5.5v-12.86h-2.77v-4.01h2.77v-0.69c0-4.31 2.33-6.97 7-6.97 1.54 0 3.16 0.34 4.19 1.04l-1.1 3.97c-0.63-0.44-1.42-0.68-2.25-0.68-1.55 0-2.48 0.89-2.48 2.78z" fill="#ffffff"/>
  <path d="m120.3 119c-1.09 0.82-2.57 1.07-4.22 1.07-4.34 0-6.54-2.23-6.54-6.45v-6.93h-2.77v-4.01h2.77v-4.11h5.73v4.11h4.3v4.01h-4.3v6.86c0 1.26 0.76 2.02 1.98 2.02 0.69 0 1.39-0.25 1.93-0.66l1.12 4.09z" fill="#ffffff"/>
  <path d="m130.7 117.2 1.03-2.1c1.92 1.79 5.14 3.05 8.47 3.05 4.6 0 6.59-1.89 6.59-4.26 0-6.4-15.09-2.28-15.09-10.85 0-3.57 2.87-6.49 9.1-6.49 2.8 0 5.67 0.8 7.7 2.17l-0.89 2.2c-2.17-1.41-4.71-2.1-6.81-2.1-4.47 0-6.43 1.99-6.43 4.33 0 6.4 13.59 2.35 13.59 10.66 0 3.57-2.94 6.44-9.2 6.44-3.09 0-6.49-1.16-8.06-3.05z" fill="#ffffff"/>
  <path d="m161.9 118.8c-0.96 0.9-2.4 1.31-3.84 1.31-3.44 0-5.36-1.99-5.36-5.36v-9.97h-2.63v-2.09h2.63v-4.11h2.37v4.11h5.22v2.09h-5.22v9.83c0 2.3 1.19 3.49 3.32 3.49 1.06 0 2.09-0.34 2.85-1.01l0.66 1.71z" fill="#ffffff"/>
  <path d="m180.8 102.7v17.21h-2.27v-3.19c-1.33 2.27-3.63 3.46-6.5 3.46-4.67 0-7.24-2.54-7.24-7.49v-9.99h2.37v9.75c0 3.81 1.89 5.7 5.26 5.7 3.64 0 6.01-2.37 6.01-6.38v-9.07h2.37z" fill="#ffffff"/>
  <path d="m202.5 95.4v24.53h-2.3v-3.57c-1.48 2.54-3.98 3.84-6.97 3.84-5.26 0-8.97-3.67-8.97-8.93 0-5.25 3.71-8.86 8.97-8.86 2.87 0 5.34 1.26 6.85 3.66v-10.67h2.42zm-2.37 15.87c0-4.21-2.87-6.95-6.69-6.95-3.86 0-6.73 2.74-6.73 6.95 0 4.22 2.87 6.95 6.73 6.95 3.82 0 6.69-2.73 6.69-6.95z" fill="#ffffff"/>
  <path d="m208.7 97.06c0-1.03 0.86-1.89 1.96-1.89 1.09 0 1.95 0.79 1.95 1.82 0 1.1-0.83 1.92-1.95 1.92-1.1 0-1.96-0.82-1.96-1.85zm0.63 5.66h1.62v17.21h-1.62v-17.21z" fill="#ffffff"/>
  <path d="m215.4 111.3c0-5.25 3.82-8.86 9.11-8.86s9.07 3.61 9.07 8.86c0 5.26-3.78 8.93-9.07 8.93s-9.11-3.67-9.11-8.93zm15.74 0c0-4.21-2.87-6.95-6.69-6.95-3.85 0-6.72 2.74-6.72 6.95 0 4.22 2.87 6.95 6.72 6.95 3.82 0 6.69-2.73 6.69-6.95z" fill="#ffffff"/>
</svg>
